<?xml version="1.0" encoding="UTF-8" standalone="no"?>
<svg
   xmlns="http://www.w3.org/2000/svg"
   width="24"
   height="24"
   viewBox="0 0 24 24"
   version="1.1"
   id="svg10"
   style="fill:none">
<defs
     id="defs14" />
  <g
     id="g4587"
     transform="translate(0,-7)">
    <g
       id="g4599"
       transform="translate(0.129353,-0.106255)">
      <path
         d="m 12.167645,15.858727 2.453884,1.731077 c 0.155294,0.105877 0.197859,0.308775 0.115981,0.473929 l -0.977619,1.791201 c 0.125628,0.200842 0.245692,0.415922 0.345662,0.639886 0.100004,0.223962 0.179888,0.456966 0.249956,0.694306 l 1.986177,0.468212 c 0.178005,0.04907 0.300625,0.216202 0.275759,0.40251 l -0.349792,2.982581 c -0.02485,0.186291 -0.179022,0.325163 -0.36528,0.338255 l -2.046538,0.09591 c -0.238742,0.433609 -0.52921,0.831944 -0.881529,1.19944 l 0.543873,1.917906 c 0.03975,0.169156 -0.0541,0.362886 -0.224358,0.438866 l -2.803523,1.25145 c -0.170276,0.07603 -0.376965,0.0164 -0.48094,-0.135728 L 8.9447781,28.463076 C 8.4459735,28.475493 7.9454887,28.43021 7.4632889,28.318432 L 6.0253693,29.77793 C 5.8912512,29.907842 5.6849409,29.929835 5.5295872,29.82401 L 3.0757652,28.09293 C 2.9204715,27.987053 2.877906,27.784157 2.9597831,27.619008 L 3.9373972,25.827804 C 3.8117385,25.626996 3.6917202,25.411888 3.5917448,25.187913 3.4917469,24.963955 3.4117602,24.730985 3.3418166,24.49361 L 1.3556027,24.025412 C 1.1775962,23.976358 1.0549794,23.809204 1.0798499,23.622904 L 1.429559,20.640353 C 1.454491,20.454016 1.6086582,20.31516 1.7949137,20.302059 l 2.0465622,-0.09599 c 0.2387605,-0.433555 0.5292202,-0.831894 0.881546,-1.199386 l -0.5439613,-1.91787 c -0.039702,-0.169195 0.05413,-0.362875 0.2244417,-0.438886 l 2.8035331,-1.25144 c 0.1701966,-0.07605 0.3769463,-0.01642 0.480856,0.135732 l 1.0645988,1.685458 c 0.4987962,-0.01242 0.999289,0.03287 1.4814848,0.144645 l 1.437881,-1.459484 c 0.134108,-0.129963 0.340418,-0.15195 0.495705,-0.04602 z m -4.1886908,5.034921 c -1.1014488,0.491663 -1.6113043,1.77037 -1.1330967,2.841672 0.478207,1.071298 1.7705382,1.545531 2.8719915,1.053862 1.101375,-0.491627 1.611298,-1.770363 1.133092,-2.841667 C 10.372733,20.87622 9.0803248,20.402011 7.9789542,20.893648 Z"
         id="path2"
         style="fill:#878787;stroke-width:0.79554319" />
      <path
         d="m 23.065142,14.483557 -1.341278,0.306128 c -0.04279,0.152078 -0.09009,0.314348 -0.158349,0.467281 -0.06826,0.152938 -0.146978,0.3012 -0.242073,0.42993 l 0.657388,1.198122 c 0.05183,0.108728 0.02859,0.245093 -0.07965,0.319031 l -1.647058,1.159975 c -0.09784,0.07866 -0.237059,0.05319 -0.338511,-0.02873 l -0.956747,-0.977215 c -0.322587,0.07613 -0.652447,0.112298 -0.995489,0.09366 l -0.714813,1.123664 c -0.06508,0.117681 -0.206104,0.152526 -0.310745,0.105819 L 15.06481,17.845296 c -0.115104,-0.0514 -0.183356,-0.179612 -0.143776,-0.296413 l 0.359028,-1.282456 C 15.052115,16.017954 14.843739,15.753811 14.68497,15.462875 l -1.366262,-0.05969 c -0.12285,-0.0053 -0.230208,-0.102748 -0.247513,-0.232671 l -0.236488,-2.000623 c -0.0063,-0.125315 0.0582,-0.242994 0.184275,-0.272321 l 1.330821,-0.310802 c 0.04279,-0.152078 0.100563,-0.309678 0.168818,-0.46261 0.06822,-0.152931 0.146966,-0.301192 0.2316,-0.43459 l -0.657376,-1.19812 c -0.05183,-0.108726 -0.02867,-0.24508 0.07963,-0.319027 l 1.647059,-1.1599802 c 0.09782,-0.0786 0.237044,-0.053153 0.338497,0.028806 l 0.956799,0.9771922 c 0.322586,-0.07611 0.652442,-0.1122867 0.995494,-0.09367 L 18.82513,8.801106 c 0.071,-0.1028126 0.201564,-0.1423448 0.316669,-0.090972 l 1.873013,0.8359232 c 0.115106,0.051376 0.183345,0.1796377 0.143756,0.2964584 l -0.359035,1.2824574 c 0.227925,0.248446 0.436297,0.512601 0.5846,0.798869 l 1.376754,0.06422 c 0.122845,0.0053 0.230213,0.102743 0.247496,0.232718 l 0.236496,2.000609 c 0.02183,0.119785 -0.06412,0.228117 -0.179734,0.262128 z M 18.64888,12.316966 c -0.774351,-0.345591 -1.685681,-0.01874 -2.026946,0.745919 -0.341267,0.764657 0.01358,1.656599 0.798389,2.006861 0.784735,0.350227 1.685601,0.0187 2.026869,-0.745956 0.341264,-0.764659 -0.02405,-1.661268 -0.798312,-2.006824 z"
         id="path4"
         style="fill:#f07508;stroke-width:0.88146615" />
    </g>
    <text
       xml:space="preserve"
       style="font-style:normal;font-variant:normal;font-weight:normal;font-stretch:normal;font-size:26.66666603px;line-height:1.25;font-family:'Bauhaus 93';-inkscape-font-specification:'Bauhaus 93, ';letter-spacing:0px;word-spacing:0px;fill:#000000;fill-opacity:1;stroke:none"
       x="145"
       y="101"
       id="text4591"><tspan
         id="tspan4589"
         x="145"
         y="125.51251" /></text>
  </g>
</svg>
